<?xml version="1.0" standalone="no"?>
<!DOCTYPE svg PUBLIC "-//W3C//DTD SVG 20010904//EN"
 "http://www.w3.org/TR/2001/REC-SVG-20010904/DTD/svg10.dtd">
<svg version="1.0" xmlns="http://www.w3.org/2000/svg"
 width="1068.000000pt" height="179.000000pt" viewBox="0 0 1068.000000 179.000000"
 preserveAspectRatio="xMidYMid meet">

<g transform="translate(0.000000,179.000000) scale(0.100000,-0.100000)"
fill="#000000" stroke="none">
<path d="M1835 895 c0 -495 1 -696 2 -447 2 250 2 655 0 900 -1 246 -2 42 -2
-453z"/>
<path d="M700 1673 c-19 -10 -45 -37 -60 -63 l-26 -45 -159 -3 c-96 -1 -164
-7 -172 -13 -7 -7 -13 -23 -13 -37 0 -52 -51 -104 -122 -126 -19 -6 -25 -50
-8 -61 18 -11 90 16 126 47 20 18 46 52 58 77 l21 46 407 3 c318 2 409 -1 418
-10 6 -7 21 -33 34 -58 26 -52 96 -101 148 -103 29 -2 33 1 33 23 0 19 -9 29
-45 46 -59 28 -79 52 -94 111 l-12 48 -166 5 c-92 3 -168 7 -170 10 -3 3 -10
20 -18 38 -26 67 -114 99 -180 65z m104 -72 c26 -28 12 -41 -44 -41 -27 0 -52
5 -55 11 -11 17 26 49 55 49 15 0 35 -9 44 -19z"/>
<path d="M9776 1486 c-19 -21 -63 -117 -135 -296 -101 -252 -108 -266 -141
-282 l-35 -18 80 0 c75 0 78 1 57 16 -12 8 -22 20 -22 27 0 6 19 60 43 119
l42 108 116 0 115 0 48 -109 c49 -111 53 -145 18 -154 -9 -3 26 -5 78 -5 58
-1 87 2 75 7 -11 5 -27 17 -36 27 -9 11 -71 145 -138 299 -67 154 -126 283
-129 286 -4 3 -20 -8 -36 -25z m57 -179 c26 -59 47 -112 47 -117 0 -6 -43 -10
-100 -10 -55 0 -100 3 -100 7 0 20 94 242 100 236 4 -5 27 -57 53 -116z"/>
<path d="M2320 1467 l25 -13 0 -269 0 -269 -25 -13 c-22 -11 -14 -13 65 -13
79 0 87 2 65 13 l-25 13 -3 262 -2 262 42 0 c149 0 189 -187 56 -256 -15 -8
-42 -14 -60 -15 -32 0 -32 -1 -8 -10 60 -25 166 15 197 74 24 46 22 130 -3
164 -50 66 -99 82 -249 83 -87 0 -97 -2 -75 -13z"/>
<path d="M3077 1466 c-87 -32 -159 -105 -188 -194 -7 -20 -10 -68 -7 -112 5
-90 33 -147 99 -204 70 -60 184 -83 280 -56 212 59 275 354 108 504 -27 24
-70 51 -96 60 -56 19 -144 20 -196 2z m150 -31 c60 -18 117 -70 147 -134 30
-66 30 -200 -1 -256 -77 -144 -232 -166 -348 -50 -79 79 -102 174 -69 285 26
89 119 168 200 170 11 0 43 -7 71 -15z"/>
<path d="M3680 1473 c8 -3 23 -12 33 -21 15 -14 17 -40 17 -267 0 -268 0 -268
-50 -289 -8 -3 62 -4 155 -2 213 4 256 16 329 89 60 61 79 110 78 208 0 150
-89 249 -247 278 -58 11 -344 14 -315 4z m360 -57 c82 -43 129 -113 137 -206
15 -164 -104 -282 -285 -284 -94 -1 -92 -8 -92 277 l0 239 103 -4 c72 -3 112
-9 137 -22z"/>
<path d="M4485 1455 l25 -24 0 -246 0 -246 -25 -24 -24 -25 183 0 183 0 7 37
c9 57 7 71 -7 43 -20 -40 -53 -51 -145 -48 -109 4 -112 8 -112 145 l0 103 94
0 c66 0 96 -4 99 -12 3 -7 5 5 5 27 0 22 -2 34 -5 28 -3 -9 -33 -13 -99 -13
l-94 0 0 120 0 120 104 0 c97 0 106 -2 122 -22 l16 -23 -6 25 c-3 14 -6 33 -6
43 0 15 -15 17 -170 17 l-169 0 24 -25z"/>
<path d="M5065 1469 c11 -7 23 -17 27 -23 4 -6 8 -124 8 -262 0 -256 -2 -274
-40 -287 -8 -3 22 -6 67 -6 l82 -1 -24 25 c-23 23 -25 31 -25 130 l0 105 43 0
c42 0 45 -2 110 -85 74 -95 146 -148 221 -165 58 -13 69 -7 28 14 -37 19 -146
124 -201 195 l-42 54 31 25 c42 33 60 72 60 130 0 61 -29 107 -85 136 -33 17
-62 21 -160 24 -97 2 -116 0 -100 -9z m214 -47 c37 -20 71 -73 71 -110 0 -71
-69 -132 -150 -132 l-40 0 0 130 0 130 43 0 c23 0 58 -8 76 -18z"/>
<path d="M6150 1460 c19 -19 20 -33 20 -252 0 -256 -8 -339 -39 -401 -11 -22
-19 -43 -16 -45 2 -2 24 16 48 41 61 61 67 95 67 392 0 232 1 246 20 265 l20
20 -70 0 -70 0 20 -20z"/>
<path d="M6505 1468 c11 -6 23 -16 27 -22 4 -6 8 -97 8 -202 0 -190 0 -192 28
-245 37 -72 105 -109 197 -109 92 0 160 37 197 109 28 53 28 55 28 247 0 181
1 195 20 214 l20 20 -57 0 c-55 0 -56 -1 -35 -16 21 -15 22 -20 22 -205 0
-207 -5 -233 -56 -281 -57 -53 -131 -62 -204 -25 -87 44 -99 84 -100 315 0
160 0 163 25 187 l24 25 -82 0 c-66 -1 -78 -3 -62 -12z"/>
<path d="M7260 1468 c46 -25 50 -48 50 -283 0 -235 -4 -258 -50 -283 -21 -11
1 -12 150 -9 150 3 183 7 231 26 116 44 173 133 173 266 1 98 -24 155 -90 214
-71 62 -113 73 -314 78 -150 4 -171 2 -150 -9z m355 -55 c89 -47 135 -127 135
-232 0 -146 -111 -250 -271 -254 -111 -3 -109 -7 -109 280 l0 235 103 -4 c79
-3 111 -9 142 -25z"/>
<path d="M8058 1464 c22 -15 22 -17 22 -285 l0 -270 -22 -9 c-17 -6 -1 -9 57
-9 58 0 74 3 58 9 l-23 9 0 270 c0 268 0 270 22 285 21 15 18 16 -57 16 -75 0
-78 -1 -57 -16z"/>
<path d="M8615 1467 c-117 -48 -183 -130 -200 -248 -9 -60 16 -158 53 -209 35
-49 104 -96 165 -111 58 -14 225 -7 282 12 40 14 40 15 43 69 l3 55 -23 -35
c-31 -47 -86 -72 -169 -78 -84 -6 -143 14 -202 67 -131 118 -111 339 38 426
90 54 206 43 280 -26 30 -28 42 -34 40 -22 -14 69 -15 71 -57 88 -55 22 -211
30 -253 12z"/>
<path d="M9196 1466 c18 -13 19 -30 22 -275 3 -251 2 -261 -18 -281 l-20 -20
72 0 c68 0 71 1 50 16 -22 15 -22 18 -22 279 0 261 0 264 22 279 21 15 18 16
-52 16 -66 0 -72 -1 -54 -14z"/>
<path d="M10298 1464 c22 -15 22 -18 22 -279 0 -261 0 -264 -22 -279 -21 -15
-8 -16 160 -16 l183 0 13 33 c8 17 17 43 20 57 6 20 3 18 -15 -10 -13 -19 -28
-39 -34 -43 -5 -4 -51 -6 -102 -5 -141 6 -133 -11 -133 289 0 226 2 249 18
258 13 8 -2 10 -58 11 -70 0 -73 -1 -52 -16z"/>
<path d="M737 1434 c-4 -4 -7 -103 -7 -219 0 -164 -3 -215 -13 -224 -9 -7 -85
-12 -208 -13 l-194 -3 -3 -32 -3 -33 446 0 c478 0 472 -1 445 49 -10 20 -19
21 -199 21 -145 0 -191 3 -200 13 -7 9 -12 90 -13 228 -3 207 -4 214 -23 217
-12 2 -24 0 -28 -4z"/>
<path d="M490 1229 l0 -170 28 3 27 3 3 168 2 167 -30 0 -30 0 0 -171z"/>
<path d="M970 1229 l0 -170 28 3 27 3 3 168 2 167 -30 0 -30 0 0 -171z"/>
<path d="M3 1214 c-9 -23 23 -77 57 -97 76 -45 199 11 188 86 -5 35 -35 32
-72 -7 -18 -20 -41 -36 -51 -36 -9 0 -32 16 -49 35 -35 38 -63 45 -73 19z"/>
<path d="M1262 1221 c-11 -7 -11 -14 1 -43 22 -53 61 -78 118 -78 42 0 55 5
85 33 43 39 52 90 17 95 -11 2 -27 -4 -35 -13 -55 -67 -65 -69 -115 -20 -37
36 -49 41 -71 26z"/>
<path d="M110 763 l0 -238 29 -60 c15 -33 47 -81 70 -107 91 -103 308 -218
472 -252 93 -19 163 -10 290 38 176 66 318 167 390 279 51 79 61 147 57 382
l-3 190 -30 0 -30 0 -5 -215 -5 -215 -585 0 -585 0 -5 215 -5 215 -27 3 -28 3
0 -238z m1200 -289 c0 -26 -110 -132 -185 -179 -135 -84 -310 -142 -396 -131
-119 16 -328 113 -422 196 -65 59 -101 105 -92 120 4 6 196 10 551 10 488 0
544 -2 544 -16z"/>
<path d="M500 419 c0 -11 4 -28 10 -38 7 -14 3 -22 -20 -40 -39 -28 -38 -41 3
-41 72 0 105 71 54 118 -29 28 -47 28 -47 1z"/>
<path d="M979 427 c-18 -14 -39 -50 -39 -67 0 -25 49 -60 85 -60 43 0 44 11 4
43 -27 21 -30 27 -20 45 23 44 6 67 -30 39z"/>
<path d="M360 421 c0 -17 52 -51 76 -51 30 0 33 34 5 50 -24 13 -81 13 -81 1z"/>
<path d="M1072 418 c-21 -21 -14 -48 12 -48 24 0 76 34 76 51 0 13 -74 11 -88
-3z"/>
<path d="M610 386 c0 -8 4 -26 10 -41 8 -22 6 -29 -23 -55 l-32 -29 43 -1 c78
0 106 58 53 111 -32 32 -51 37 -51 15z"/>
<path d="M856 375 c-52 -49 -23 -115 51 -115 39 0 42 12 9 38 -21 16 -24 25
-19 60 7 49 -3 52 -41 17z"/>
<path d="M730 325 c-18 -22 -1 -50 31 -50 20 0 24 5 24 30 0 23 -5 31 -21 33
-11 2 -27 -4 -34 -13z"/>
<path d="M286 822 c-3 -6 -2 -13 4 -17 13 -8 13 -135 0 -135 -5 0 -10 -4 -10
-10 0 -5 15 -10 34 -10 34 0 35 1 29 35 -5 30 -3 35 14 35 10 0 24 5 31 12 17
17 15 63 -3 78 -19 16 -91 25 -99 12z m74 -51 c0 -11 -4 -23 -10 -26 -6 -4
-10 5 -10 19 0 14 5 26 10 26 6 0 10 -9 10 -19z"/>
<path d="M484 819 c-3 -6 -1 -15 6 -19 13 -8 9 -118 -6 -167 -8 -27 7 -30 30
-7 12 11 16 35 16 87 0 40 3 82 6 95 5 19 2 22 -19 22 -14 0 -29 -5 -33 -11z"/>
<path d="M629 828 c0 -2 -1 -42 -2 -91 l-2 -87 56 0 c43 0 58 4 63 16 9 24 9
25 -34 18 -36 -6 -40 -5 -40 15 0 19 5 22 28 19 21 -2 27 1 27 17 0 16 -6 19
-27 17 -23 -3 -28 1 -28 18 0 24 26 38 43 21 18 -18 29 -13 25 12 -3 19 -10
22 -55 25 -29 2 -53 2 -54 0z"/>
<path d="M868 815 c-33 -18 -48 -44 -48 -82 0 -60 60 -100 130 -85 28 6 36 13
38 35 2 15 -1 27 -7 27 -6 0 -11 -5 -11 -10 0 -6 -12 -15 -26 -21 -29 -10 -70
8 -81 37 -19 50 39 98 83 69 30 -19 34 -19 34 4 0 24 -5 28 -50 35 -22 4 -45
0 -62 -9z"/>
<path d="M1060 812 c0 -25 11 -34 26 -21 7 6 27 9 44 7 l32 -3 -51 -67 c-28
-37 -51 -70 -51 -73 0 -3 36 -5 80 -5 72 0 80 2 80 19 0 16 -6 18 -47 13 l-48
-5 29 39 c17 21 38 50 48 63 34 44 25 51 -62 51 -71 0 -80 -2 -80 -18z"/>
<path d="M3070 325 l0 -105 53 0 c28 0 57 4 63 8 22 14 34 52 34 106 0 76 -20
96 -95 96 l-55 0 0 -105z m101 58 c8 -9 14 -35 14 -58 0 -51 -18 -75 -56 -75
l-29 0 0 75 0 75 29 0 c16 0 35 -7 42 -17z"/>
<path d="M3300 325 l0 -105 70 0 c56 0 70 3 70 15 0 11 -12 15 -50 15 -49 0
-50 1 -50 30 0 28 2 30 40 30 29 0 40 4 40 15 0 11 -11 15 -40 15 -38 0 -40 2
-40 30 0 29 1 30 50 30 38 0 50 4 50 15 0 12 -14 15 -70 15 l-70 0 0 -105z"/>
<path d="M3520 325 l0 -105 60 0 c47 0 60 3 60 15 0 11 -12 15 -45 15 l-45 0
0 90 c0 73 -3 90 -15 90 -12 0 -15 -18 -15 -105z"/>
<path d="M3820 325 l0 -105 65 0 c51 0 65 3 65 15 0 11 -12 15 -50 15 -49 0
-50 1 -50 30 0 28 2 30 40 30 29 0 40 4 40 15 0 11 -11 15 -40 15 -38 0 -40 2
-40 30 0 29 1 30 50 30 38 0 50 4 50 15 0 12 -14 15 -65 15 l-65 0 0 -105z"/>
<path d="M4032 418 c-16 -16 -15 -73 1 -85 6 -6 29 -16 50 -23 30 -9 38 -16
35 -33 -3 -19 -11 -22 -50 -25 -34 -2 -48 -7 -48 -18 0 -10 14 -14 53 -14 63
0 90 21 85 67 -2 22 -13 33 -53 53 -65 33 -66 54 -2 58 33 2 47 7 47 18 0 18
-100 20 -118 2z"/>
<path d="M4220 415 c0 -10 10 -15 30 -15 l30 0 0 -90 c0 -72 3 -90 15 -90 11
0 15 19 17 88 3 87 3 87 31 90 15 2 27 9 27 18 0 11 -17 14 -75 14 -60 0 -75
-3 -75 -15z"/>
<path d="M4439 325 c-24 -97 -25 -105 -9 -105 10 0 20 9 23 20 4 16 14 20 45
20 32 0 42 -4 47 -20 7 -22 35 -28 35 -7 0 6 -11 53 -23 102 l-23 90 -35 3
-35 3 -25 -106z m74 46 c3 -16 9 -40 13 -55 6 -24 4 -26 -26 -26 -32 0 -32 1
-26 38 15 79 29 95 39 43z"/>
<path d="M4660 325 l0 -105 55 0 c78 0 95 19 95 105 0 86 -17 105 -95 105
l-55 0 0 -105z m104 59 c20 -20 21 -83 0 -112 -10 -14 -25 -22 -45 -22 l-29 0
0 75 0 75 29 0 c16 0 37 -7 45 -16z"/>
<path d="M4924 422 c-39 -26 -48 -148 -14 -182 25 -25 101 -28 124 -5 33 33
33 140 0 176 -17 19 -87 26 -110 11z m84 -34 c17 -17 15 -113 -2 -127 -8 -7
-27 -11 -42 -9 -21 2 -30 10 -36 33 -10 34 -3 81 13 102 14 16 51 17 67 1z"/>
<path d="M5250 325 l0 -105 54 0 c82 0 101 20 101 105 0 85 -19 105 -101 105
l-54 0 0 -105z m108 63 c7 -7 12 -35 12 -63 0 -58 -12 -75 -52 -75 l-28 0 0
75 0 75 28 0 c15 0 33 -5 40 -12z"/>
<path d="M5490 325 l0 -105 65 0 c51 0 65 3 65 15 0 11 -12 15 -45 15 -43 0
-45 1 -45 30 0 28 2 30 40 30 29 0 40 4 40 15 0 11 -11 15 -40 15 -38 0 -40 2
-40 30 0 29 2 30 45 30 33 0 45 4 45 15 0 12 -14 15 -65 15 l-65 0 0 -105z"/>
<path d="M5827 412 c-25 -27 -24 -153 1 -175 25 -22 112 -24 112 -2 0 11 -11
15 -40 15 -46 0 -60 18 -60 75 0 57 14 75 60 75 29 0 40 4 40 15 0 23 -92 21
-113 -3z"/>
<path d="M6034 409 c-14 -16 -19 -36 -19 -84 0 -83 18 -105 86 -105 63 0 79
22 79 107 0 50 -4 67 -20 83 -28 28 -100 28 -126 -1z m110 -51 c14 -56 -3
-102 -37 -106 -41 -5 -57 14 -57 65 0 63 14 85 53 81 28 -3 33 -8 41 -40z"/>
<path d="M6272 333 c-12 -54 -22 -101 -22 -105 0 -17 29 -7 35 12 5 16 15 20
47 20 31 0 41 -4 45 -20 3 -11 13 -20 23 -20 16 0 15 8 -8 105 l-26 105 -36 0
-37 0 -21 -97z m77 23 c16 -63 15 -66 -19 -66 -16 0 -30 5 -30 11 0 23 23 99
30 99 4 0 13 -20 19 -44z"/>
<path d="M6490 325 c0 -87 3 -105 15 -105 11 0 15 12 15 45 l0 45 45 0 45 0 0
-45 c0 -38 3 -45 20 -45 19 0 20 7 20 105 0 98 -1 105 -20 105 -17 0 -20 -7
-20 -46 l0 -45 -42 3 c-43 3 -43 3 -46 46 -2 28 -8 42 -18 42 -11 0 -14 -20
-14 -105z"/>
<path d="M6740 341 c0 -106 9 -121 75 -121 66 0 75 15 75 121 0 72 -3 89 -15
89 -12 0 -15 -15 -15 -78 0 -82 -9 -102 -45 -102 -36 0 -45 20 -45 102 0 63
-3 78 -15 78 -12 0 -15 -17 -15 -89z"/>
<path d="M6980 325 c0 -98 1 -105 20 -105 19 0 20 7 20 105 0 98 -1 105 -20
105 -19 0 -20 -7 -20 -105z"/>
<path d="M7110 325 l0 -105 60 0 c47 0 60 3 60 15 0 11 -12 15 -45 15 l-45 0
0 90 c0 73 -3 90 -15 90 -12 0 -15 -18 -15 -105z"/>
<path d="M7321 393 c-25 -95 -41 -161 -41 -167 0 -16 33 -4 37 14 4 16 14 20
49 20 37 0 44 -3 44 -20 0 -14 7 -20 21 -20 15 0 19 5 15 18 -3 9 -15 56 -27
105 l-21 87 -34 0 c-30 0 -34 -4 -43 -37z m64 -55 c7 -46 6 -48 -17 -48 -14 0
-27 3 -30 6 -5 5 4 51 18 93 8 24 22 -1 29 -51z"/>
<path d="M7630 325 l0 -105 59 0 c52 0 62 3 80 26 15 19 21 41 21 79 0 38 -6
60 -21 79 -18 23 -28 26 -80 26 l-59 0 0 -105z m110 60 c16 -20 16 -101 0
-120 -7 -8 -25 -15 -41 -15 l-29 0 0 75 0 75 29 0 c16 0 34 -7 41 -15z"/>
<path d="M7870 325 l0 -105 70 0 c56 0 70 3 70 15 0 11 -12 15 -50 15 -49 0
-50 1 -50 30 0 28 2 30 40 30 29 0 40 4 40 15 0 11 -11 15 -40 15 -38 0 -40 2
-40 30 0 29 1 30 50 30 38 0 50 4 50 15 0 12 -14 15 -70 15 l-70 0 0 -105z"/>
<path d="M8190 415 c0 -11 12 -15 45 -15 25 0 45 -2 45 -5 0 -2 -20 -33 -45
-68 -25 -36 -45 -74 -45 -86 0 -19 6 -21 65 -21 51 0 65 3 65 15 0 11 -12 15
-45 15 -25 0 -45 3 -45 6 0 4 20 35 45 70 25 34 45 72 45 83 0 19 -6 21 -65
21 -51 0 -65 -3 -65 -15z"/>
<path d="M8435 418 c-8 -25 -45 -177 -45 -187 0 -19 28 -12 35 9 9 29 85 29
92 0 3 -11 13 -20 23 -20 16 0 15 8 -8 105 l-26 105 -33 0 c-19 0 -36 -6 -38
-12z m54 -62 c16 -63 15 -66 -20 -66 -29 0 -31 2 -25 26 4 15 10 39 13 55 8
41 19 36 32 -15z"/>
<path d="M8630 325 c0 -87 3 -105 15 -105 10 0 15 11 15 35 0 32 3 35 28 35
23 0 30 -6 41 -35 8 -24 19 -35 32 -35 23 0 23 1 3 44 -16 32 -16 36 0 51 22
22 21 78 -2 98 -13 12 -37 17 -75 17 l-57 0 0 -105z m110 56 c14 -26 3 -50
-26 -57 -39 -10 -54 2 -54 41 0 33 2 35 35 35 24 0 37 -6 45 -19z"/>
<path d="M8881 378 c-6 -29 -18 -77 -25 -105 -13 -49 -13 -53 4 -53 10 0 20 9
23 20 4 16 14 20 45 20 32 0 42 -4 47 -20 7 -22 35 -28 35 -7 0 6 -11 53 -23
102 l-23 90 -36 3 -36 3 -11 -53z m62 -7 c3 -16 9 -40 13 -55 6 -24 4 -26 -25
-26 -35 0 -38 10 -20 73 12 44 24 48 32 8z"/>
<path d="M9094 405 c-11 -16 -17 -46 -17 -80 0 -34 6 -64 17 -80 15 -22 23
-25 76 -25 l60 0 0 55 c0 54 0 55 -30 55 -32 0 -42 -23 -15 -34 8 -3 15 -15
15 -26 0 -16 -6 -20 -35 -20 -40 0 -55 20 -55 75 0 61 14 75 70 75 38 0 50 4
50 15 0 12 -13 15 -60 15 -53 0 -61 -3 -76 -25z"/>
<path d="M9330 410 c-16 -16 -20 -33 -20 -83 0 -85 16 -107 79 -107 68 0 86
22 86 105 0 81 -19 105 -82 105 -30 0 -49 -6 -63 -20z m100 -29 c5 -11 10 -36
10 -56 0 -52 -15 -75 -50 -75 -46 0 -65 60 -40 124 12 33 64 37 80 7z"/>
<path d="M9550 415 c0 -11 12 -15 45 -15 25 0 45 -2 45 -5 0 -3 -20 -36 -45
-73 -63 -94 -62 -102 25 -102 54 0 70 3 70 14 0 11 -14 16 -51 18 l-50 3 50
73 c28 41 51 80 51 88 0 11 -16 14 -70 14 -56 0 -70 -3 -70 -15z"/>
<path d="M9791 393 c-25 -95 -41 -161 -41 -167 0 -16 33 -4 37 14 4 16 14 20
49 20 37 0 44 -3 44 -20 0 -14 7 -20 21 -20 15 0 19 5 15 18 -3 9 -15 56 -27
105 l-21 87 -34 0 c-30 0 -34 -4 -43 -37z m65 -61 c6 -40 5 -42 -18 -42 -34 0
-37 6 -26 48 17 67 18 69 28 51 5 -9 12 -35 16 -57z"/>
</g>
</svg>
